<?xml version="1.0" encoding="UTF-8"?>
<svg id="_图层_1" data-name="图层 1" xmlns="http://www.w3.org/2000/svg" viewBox="0 0 595.28 841.89">
  <defs>
    <style>
      .cls-1 {
        fill: none;
      }

      .cls-1, .cls-2 {
        stroke: #231815;
        stroke-miterlimit: 10;
      }

      .cls-2 {
        fill: #fff;
      }
    </style>
  </defs>
  <circle class="cls-2" cx="163.43" cy="216.78" r="66.82"/>
  <path class="cls-1" d="M153.45,191.23c.9,2.37,1.12,4.96.98,7.49-.17,3.17-1.03,6.56-3.52,8.53-1.7,1.35-3.92,1.82-6.05,2.22-3.41.64-6.84,1.18-10.28,1.64-3.96.52-8.3.83-11.63-1.37-2.6-1.72-4.14-4.83-4.17-7.94-.07-6.46,3.61-9.37,9.39-9.78,8.39-.6,16.87-.61,25.28-.77Z"/>
  <path class="cls-1" d="M209.17,187.07c1.23.4,2.5.83,3.48,1.68,1.91,1.65,2.26,4.62,1.39,6.99s-2.73,4.24-4.7,5.83c-8.9,7.15-20.71,9.73-32.13,9.98-9.71.21-6.62-18.35-.82-22.59,9.79-7.16,22.13-5.38,32.78-1.88Z"/>
  <path class="cls-1" d="M130.08,236.59h2.29c5.93,0,12.1-1.56,18.03-1.82,12-.52,24-1.04,36-1.57,5.44-.24,10.9-.47,16.32,0,4.52.39,9.57,1.66,11.77,5.62.86,1.54,1.17,3.31,1.42,5.06.68,4.67,1.06,9.39,1.12,14.11.02,1.98-.02,4.01-.8,5.83-.99,2.31-3.04,3.98-5.06,5.46-11.52,8.45-25.55,14.37-39.81,13.34-6.72-.49-13.22-2.48-19.65-4.47-8.24-2.54-17-5.43-22.31-12.22-2.39-3.05-3.9-6.72-4.82-10.48-1.61-6.64,3.48-12.33,5.49-18.85Z"/>
</svg>